<svg xmlns="http://www.w3.org/2000/svg" width="366" height="194"><style type="text/css">.st0{fill:#48201B;} .st1{fill:#D69C42;}</style><path class="st0" d="M181.61 186.87l-1.94-.06-.65-.19c-.41-.56-.82-1.12-1.23-1.67l-.23-.27-1.52-1.97-.41-.35c-.62-1.09-1.24-2.17-1.85-3.25l-.57-.57-1.79-2.78-.2-.35c-.71-1.36-1.42-2.72-2.12-4.07-.33-.56-.66-1.12-.99-1.69l-1.73-3.69c-.17-.6-.29-1.22-.52-1.8-3.4-8.58-8.81-16.55-7.52-27.16-1.82 1.95-3.4 2.6-5.02 2.73-.98.08.16-1.22-.44-1.7l.01-4.31c.5-2.4-1.35-3.89-2.6-5.22-1.85-1.98-1.5-3.53-.13-5.26 3.12-3.96 5.53-8.15 6.22-13.33.67-5.02 1.65-10.04 2.95-14.93 1.27-4.77 3.87-9.31.14-14.16-.63-.82-.4-2.37-.42-3.58-.02-1.93 1.23-4.23-2.39-4.55-2.35-.21-5.11-3.3-5.93 1.69-.19 1.16-1.4 1.22-2.35 1.37-2.82.45-5.19 6.09-3.44 8.42 1.12 1.5.45 2.09-.97 2.41-8.52 1.87-17.22 2.53-25.83 3.76-7.26 1.04-14.86-1.29-21.86 2.29-2.49 1.28-5.11 2.31-7.6 3.6-1.14.59-2.3 1.55-1.92 3.02.44 1.71 1.9 1.5 3.29 1.3.59-.09 1.22.15 1.84.24-.28.48-.64.94-.83 1.46-.33.87-1.62 1.69-.93 2.52.43.51 1.79.29 2.73.34 1.13.06 2.08-1.11 3.17-.64-.55 1.5-1.08 2.96-1.62 4.42 1.48.4 2.94.26 4.4-.12.58-.15 1.21-.14 1.82-.21-.22.64-.33 1.36-.69 1.9-.4.61-.57 1.19-.3 1.81.32.74 1.04.57 1.69.63 1.95.18 3.47-.96 5.13-1.61 1.51-.59 2.46-.98 1.94 1.39-.26 1.19-.14 2.35 1.98 1.61 2.14-.75 4.3-1.24 6.09-2.76.23-.2 1.2-1.14 1.32.22.33 3.89 2.48 5.62 6.09 4.87.3-.06.94.17.93.23-.28 3.91 3.02 2.99 5.06 3.88 2.08.9 2.44 3.29 3.55 4.99.64.98-.13 2.31-1.24 3.14-2.46 1.83-7.9 1.79-10.24-.12l-.92-.75c1.02-5.26-5.88-.33-5.74-4.46-3.08 1.45-7.3-.53-9.65 3.26-.49.78-1.55.71-2.33.32-1.01-.5-.21-1.11-.02-1.76.18-.63.24-1.56-.11-2.01-.47-.61-1.31-.98-2.26-.55-1.7.77-3.48 1.37-5.14 2.21-1.59.81-2.59.69-2.52-1.29.16-4.29-2.33-3.14-4.64-2.34-1.1.38-2.14.92-3.23 1.34-.44.17-.96.53-1.09-.43-.82-5.76-2.37-6.43-6.92-3.03.91-6.23.91-6.23-6-5.91.72-1.58 3.18-3.1.3-4.78-.05-.03.1-.67.3-.84 2.75-2.35 2.01-3.51-1.49-3.7.78-.99 1.53-1.42 2.53-1.7 1.06-.29 3.04-.77 2.58-1.76-.55-1.2-3-2.83-3.57-2.49-3.3 1.97-4.89-.06-6.62-2.18l-.71-.79c-.96-1.33-2.52-1.12-3.86-1.49l-.34-.6c.43-.42 1.24-.76.73-1.5-.48-.7-.95-.19-1.38.25-.52.53-1.02.05-1.57-.09-3.14-.77-6.3-1.45-9.46-2.16-.92-.49-1.83-.97-2.75-1.45-.59-1.61-2.01-1.88-3.45-2.11-.53-.39-1.05-.77-1.57-1.16-4.23-4.02-8.62-7.92-12.21-12.55-1.72-2.21-2.88-4.64-5.18-6.65-2.82-2.47-.31-5.06 2.28-6.72.83-.53 1.42-2.19 2.4-1.48.79.56-.01 1.91-.45 2.92-.35.79-.32 1.99.75 2.28 1.19.32 1.19-.77 1.34-1.6.56-3.12 4.35-4.5 6.95-2.56.64.47 1.13.39 1.23-.44.18-1.53-1.23-2.29-1.87-3.4-.38-.66-1.42-.42-2.11.09-2.53 1.86-5.25 1.27-7.77.25-1.38-.56-2.12-.32-2.52.81-.48 1.35-1.67 1.93-2.6 2.71-1.11.94-2.42 2.24-3.94.21-1.24-1.65-1.94-3.42-1.91-5.43.01-.7 2.2-.54.87-2.08-1.07-1.23-1.95-.99-3.19-.32-1.46.78-2.56-.2-3.16-1.4-.53-1.08-.92-2.32 1.12-2.67.87-.15 1.63-1.17 1.42-2.29-.21-1.13-1.23-.63-1.93-.77l-3.96-.8-.12-1.81c.28-.63.79-.71 1.43-.69.73.02 1.88.38 2.02-.48.19-1.14-1.01-.46-1.56-.7-1.08-.48-.12-.9.06-1.41 1-2.9 5.99-.65 6.03-4.72 4.85-1.91 9.99-2.28 15.1-2.8l.47-.03c1.3-.84 2.78-.47 4.17-.61l8.55.02c.51.03 1.02.06 1.52.1 2.03.73 4.12.95 6.26.67l1.46.19.88.33 1.39.23c-.64 2.59 2.13 3.06 3.44 5.16-1.25-.46-1.93-.85-2.65-.93-1.39-.16-2.91-.15-3.23 1.64-.38 2.15 1.53.46 1.99 1.05.94 1.22 3.87-.01 3.45 2.68-.25 1.58-1.08 2.92-2.31 4.09-2.32 2.21-4.32 4.66-8.16 4.11-1.44-.21-3.25-.03-4.56 1.14-.4.36-1.1 1.06-1.02 1.16.4.59 1 .86 1.82.56.72-.27 1.59-.32 2.16.36.59.71-.25 1.13-.46 1.69-.44 1.21-2.98 1.48-2.17 2.6.88 1.21 2.78-.39 4.29-.29.37.03.78-.08 1.14-.19 2.83-.91 3.33.52 3.34 2.97.01 1.35.49 3.69 1.2 3.87 3 .77 5.89-.63 8.71-1.59.79-.27-.01-.68-.39-1-1.56-1.29-2.94-2.58-.3-4.29.68-.44.37-1.3-.59-1.54-.47-.12-.93-.27-1.39-.4.43-.45.81-1.23 1.31-1.31 2.37-.4 4-1.66 5.09-3.75.29-.55.99-1.08.54-1.69-.26-.35-1-.36-1.53-.51-.79-.23-2.22-.4-2.24-.68-.08-1.07 1.18-1.12 1.88-1.59.46-.31 1.09-.37 1.66-.49 2.45-.52 3.4-2.9 1.64-4.67-2.23-2.25.24-3.77.55-5.61 6.81.89 13.38 2.86 20.03 4.48 12.73 3.1 25.33 6.66 37.6 11.27 8.53 3.21 17.42 5.49 25.4 10.11 2.22 1.29 3.93 1.66 3.64-2.07-.19-2.38.33-4.82.54-7.22l-.07-.65-.27-1.36.67-3.64c-.48-.37-.96-.73-1.43-1.1l-.3-.2c-1.3-.78-2.12-1.98-2.88-3.24l-1.45-6.45-.87-.67c-.66-.77-2.08-.94-1.89-2.39.43.08.87.16 1.3.23 1.35.54 1.82.18 1.24-1.23l-.33-1.6c.4-.77-.91-2.02.33-2.35 1.19-.32 1.24 1.13 1.48 1.89 1.52 4.9 4.51 8.18 9.68 9.28.48.1.87.63 1.3.96l-.99.82c-.87-.3-1.81-.7-1.31.93-.36.72-.07 1.28.47 1.76l.06 1.35-.19.04c-.04.04-.05.13-.03.19.81 2.09 1.68 4.16 2.43 6.27.41 1.16.9 2.23 2.24 2.34 1.24.11 1.77-.97 2.26-1.85.54-.97.9-2.05 1.33-3.08.05-.84.1-1.69.16-2.53.55-.55.56-1.11.04-1.68-.17-.84-.14-1.8-1.27-2.05-.42-1.31.74-1.36 1.43-1.78 2.36-2.04 4.43-4.3 5.96-7.06 1.19-2.15 11.65-3.73 12.58-1.77 1.55 3.25 4.31 5.26 6.72 7.61 1.16 1.13 4.78.41 2.33 3.85-.24.34 1.14 1.9 2.22 1.73 1.76-.27 2.33-1.85 2.75-3.39.37-1.36-.51-1.31-1.42-1.27-.18.01-.36-.26-.54-.41.28-.31.51-.79.86-.91 2.1-.7 2.73-2.22 2.9-4.3.2-2.39 1.19-4.33 3.56-5.61 1.81-.98 2-3.36 3.03-5.04l.44-1.05.72-1.72.14-.93c.69-4.85 1.38-9.7 2.08-14.55l.16.07.11-.14.52.49c-.2.63-.55 1.28.33 1.7-.08 4.56-.68 9.05-1.59 13.51l-.47.23.34.45c-.53 1.79-1.12 3.56-1.55 5.37-.28 1.14-1.03 2.81.06 3.39 1.44.77 2.56 2.89 5 1.42 1.72-1.03 3.99-1.14 6.01-1.66l-.08.12.2.24c-1.5 1.62-3.6 2.12-5.55 2.79-7.18 2.47-9.93 8.15-7.58 15.24.74 2.22.66 4.72.87 7.11.15 1.71.87 2.51 2.7 2.54 5.37.1 9.68-3.1 14.56-4.49 2.16-.62 4.03-2.56 6.58-1.53.92.83 1.13 1.65.8 2.99-.3 1.2-.2 3.47 1.37 3.39 1.8-.09 3.52.16 5.23.38.7.09 2.01-.48 2.29.77.22 1-.85 1.32-1.43 1.86-.39.36-1.03.81-.59 1.22.73.68 1.69 1.15 2.61 1.59.24.12.95-.14.97-.28.21-1.61 1.52-3.44.57-4.74-1.1-1.49-3.13-2.62-5.15-1.94-2.28.77-2.89-.71-3.55-2.12-.58-1.23-.85-2.6-1.26-3.91.46-1.29 1.65-1.23 2.69-1.45.55 1.34 1.28 2.65 1.6 4.04.32 1.38 1.83.21 2.15 1.26.13-.61.22-1.24.4-1.84.48-1.67-.64-3.06-.77-4.63 9.66-3.01 19.15-6.54 28.97-9.06 6.92-1.78 13.76-3.83 20.64-5.76l.41-.08 1.26-.29c.4.35.77.45 1.04-.15l1.65-.19c.61 1.26 1.19 2.53 2.51 3.28.62.35.64.96.08 1.45-3.25 2.85-2.91 4.26 1.34 5.85 1.24.46 2.37 1.2 3.76 1.92-1.55.34-2.74.63-3.94.87-.92.18-1.04.58-.52 1.33 1.46 2.11 2.92 4.16 5.71 4.73.53.11 2.07 1.16.81 1.61-2.4.86-.94 1.62-.32 2.5.5.72.41 1.26-.24 1.85-.47.43-1.36.74-.89 1.68.41.82 1.88 1.44 2.55 1.31-.29-2.98.53-5.72 1.81-8.34 2.18.61 2.23.78.54 2.53-.15.16-.26.5-.19.7.42 1.29 2.01 2.34.45 4.02-.35.38.73 1.29 1.62.72.68-.44 1.28-.73 2.15-.5 1.99.53 2.79-.93 3.25-2.39.5-1.59-.74-1.71-1.92-1.85-.82-.09-.69-.85-.57-1.4.19-.83.72-.74 1.33-.38.5.29 1.02.61 1.57.74.64.15 1.26.98 1.93.29.72-.74-.55-1.05-.5-1.62.14-1.68-1.27-4.28 2.31-3.96-.39-2.42-2.47-2-3.72-1.88-1.64.16-4.82-.39-3.15 3.58-.53-1.59-3.12-1.74-2.49-2.94 1.48-2.83-1.02-3.42-2.21-4.23-3.36-2.28-3.75-4.13-.93-6.97.32-.32.77-.9.27-1.13-2.84-1.26-.44-2.77-.02-3.85.53-1.34.03-1.6-.93-1.93 2.31-1.85 5.25-1.66 7.83-1.8 7.36-.38 14.76-.82 22.12.15 1.64.72 3.31 1.36 5.16 1.3l3.19.79.42.08c1.18.38 2.52.4 3.4 1.48-.13.48-.09.77.51.5l1.86.96.17.41.28-.13c.79.65 1.68 1.22 1.95 2.31-.27.63-.04 1.02.59 1.21l1.71 3.18c2.45 5.8 1.61 11.2-2.19 16.12-2.25 2.91-4.41 5.98-7.08 8.47-6.34 5.9-11.14 13.34-18.25 18.44-3.47 2.49-7.62 4.01-10.53 7.33l-.51.45c-1.84.88-3.4 2.09-4.67 3.69l-.8.54-.38.26-.79.52-.37.26-.8.59c-3.83 1.26-7.77 2.35-9.73 6.44-.3.62-.69 1.71-1.01 1.69-.91-.03-.89-1.1-1.18-1.78-2.29-5.32-4.63-6.32-9.82-4.15-.22.09-.39.3-.58.45.28.31.5.72.84.92 1.77 1.01 3.58 1.97 5.48 3-.81.21-1.58.2-2.07.57-.79.59.94.86.32 1.92-.73 1.25-1.37 3.2-.88 4.35.85 1.96.08 2.08-1.35 2.03-3.28-.11-4.77 1.17-4 4.63.21.94-.64.41-1.07.3-4.13-1.11-5.35-.09-4.86 4.08.07.61.22 1.06-.69.81l-5.42-1.39c-1.54-.42-2.53-.12-2.56 1.71-.03 1.88-1.43 2.98-2.79 2.29-1.5-.77-3.12-1.16-4.59-1.94-2-1.07-2.9-.16-2.9 1.96 0 .66.51 1.49-.33 1.95-.82.44-1.47-.13-2.11-.58-4.53-3.17-9.16-1.74-13.75-.23-.51.17-1.2.91-1.18 1.36.2 3.91-2.68 2.78-4.65 2.79-1.18.01-2.34-.69-3.54-.89-1.61-.27-3.45.03-3.91-2.26-.6-2.96 2.23-5.39 3.41-5.47 3.75-.25 4.92-5.54 9.1-4.17.14.04.48-.37.65-.63 2.79-4.22 2.79-4.22 8.16-2.73.62.17 1.24.44 1.87.51.82.09 1.89-.2 1.66-1.11-1.2-4.73 1.49-1.68 2.76-1.43 1.2.24 2.38.6 3.59.77.72.1 1.75.4 2.09-.46.2-.52-.2-1.35-.49-1.95-.28-.58-.84-1.14-.45-1.77.52-.82 1.28-.19 1.94-.1 1.02.14 2.03.4 3.06.45 1.1.06 1.6-.39.97-1.55-.44-.82-1.27-2.11-.99-2.5.65-.88 1.91-.18 2.91-.12.85.05 1.92.85 2.46-.15.57-1.07-.42-1.87-1.13-2.64-.42-.45-1.14-1.16-1.02-1.47.31-.78 1.1-.22 1.69-.13 1.48.24 3.82.05 3.74-1.05-.17-2.46-.72-6.06-2.36-7-3.57-2.05-7.84-3.24-12.21-2.78-6.83.72-13.64-.25-20.46-.3-6.5-.05-12.98-1.18-19.48-1.77-5.34-.48-6.3-1.81-4.68-6.63.92-2.73 1.22-4.99-2.92-4.91-.94.02-2.9-.01-2.77-1.97.06-.91 1.87-2.34.32-2.56-1.6-.23-4.26-.14-5.01 1.94-.9 2.5-1.14 5.26-1.55 7.92-.34 2.21-1.89 3.24-3.7 4-.85.36-2.5.41-1.93 1.49.69 1.3.08 3.6 1.98 3.85 1.4.18 2.42-1.01 2.27-2.73-.03-.34.35-.72.55-1.08.22.19.63.38.62.55-.06 2.01-.8 4.13-2.25 5.12-.96.65-2.67 2.97-4.52.7-.15-.19-.87-.23-1.01-.06-.87.98-1.94 2.21-1.43 3.43.73 1.75 2.84 1.05 4.31 1.49.54.16 2.04-.45 1.78-1.97-.16-.92.88-1.6 1.15-.96.54 1.28 1.72 2 2.13 3.48 2.76 9.84 3.05 20.69 11.16 28.45 1.16 1.11.7 1.8-.88 2.15-4 .89-5.23 4.64-2.73 8.01l.6.88c-.09.47.11.72.59.73.19.27.38.55.56.82l.23.34.55.9.51 1 .74 2.13c.45 4.33 1.4 8.56 2.83 12.68l3.51 5.94c-3.88-3.14-5.97-7.31-7.11-12.02-.28-2.66-1.21-5.11-2.5-7.42-1.24-2.21-2.59-2.49-4.25-.33-1.31 1.71-2.45 3.42-3.12 5.53-1.99 6.29-4.16 12.51-6.32 18.74-.26.76-.75 1.6-1.38 2.06-2.69 1.93-3.86 4.9-5.44 7.6-.21.27-.42.54-.62.81-.49.55-1.01 1.08-1.47 1.65-2.72 3.26-4.7 7.21-9.27 8.33zm12.9-99.38l.55-3.34c2.18-3.5 2.56-7.11.5-10.9.74.66 1.27 1.34 1.76 2.05.4.59.36 1.68 1.44 1.48.97-.18 1.28-1.07 1.37-1.92.22-2.27-.35-4.42-.89-6.63-.72-2.94-4.29-5.35-2.41-8.65 1.72-3.02-.76-4.2-1.76-6.09-.06-.11-.1-.23-.13-.36l.07-.08-.11-.03-.86-1.42.03-.09-.07.05c-.6-.34-1.2-.68-1.8-1.01-.33-.45-.56-1.1-1-1.31-2.56-1.19-5.12-2.43-7.78-3.35-3.03-1.04-6.03-.07-8.47 1.59-3.65 2.48-4.31 7.19-7 10.55-3.54 4.42-2.41 10.25-2.96 15.53-.26 2.48-1.83 5.95 1.31 6.84 4.21 1.19 3.63 5.19 5.77 7.45.24.25-.12 1.06-.2 1.6-.22-.04-.55.01-.65-.12-1.41-1.9-1.23.05-1.48.64-.94 2.23.46 4.09 1.11 6.03.26.79-1.35 2.07.16 2.08 1.45.01.88-1.73.85-2.71-.02-.85-.29-1.6.97-1.55 1.18 1.6 2.36 3.2 3.53 4.79l.22.23.17.09c.11.2.22.56.34.57 4.39.17 8.78.39 13.17.4 1.72 0 2.57-1.03 1.82-2.86l.12-1.55c-.16-1.66 2.43-.89 2.28-2.68-.15-1.76.01-3.54.03-5.32zm-24.21 28.59c.9 0 1.93.28 2.67-.07.84-.4 2.82.53 2.45-1.3-.81-4.05-2.01-7.93-7.53-7.34-1.79.19-4.63-1.05-5.13.65-.61 2.12-1.36 5.14 1.34 7.06 1.93 1.38 4.11.82 6.2 1zm2.56 28.31c4.12-.18 4.78-.82 4.11-4.23-.15-.75-1.15-1.59-.97-2.1 1.09-2.97-1.14-2.71-2.66-2.67-1.96.06-3.9.66-5.87-.02-.8-.28-1.01.32-1.15.92-1.35 5.59.87 8.34 6.54 8.1zm.84-16.09c3.39-.21-.3-3.68 1.84-4.78.4-.2-1.21-1.24-2.01-1.45-2.23-.6-4.54-.91-6.8-1.43-1.66-.38-3.62-.5-3.44 1.61.17 1.91.21 5.08 2.91 5.14 2.51.05 4.85.55 7.5.91zm19.57-13.43c1.43.4 2.95-.39 4.42-.91 2.52-.88 3.46-2.99 2.6-5.41-.93-2.63-3.45-1.31-5.18-1.29-1.6.02-3.78.52-2.81 3.24.24.66-.1 1.18-.64 1.46-.97.51-2.08 1.3-1.61 2.3.46.99 1.88.77 3.22.61zm-28.04-27.34c.33-1.59-.19-2.16-.92-2.26-.99-.14-1.1.83-1.11 1.47-.08 3.99-2.27 8.19 1.35 11.84.71.71 1.3.82 2 .61 1.79-.52 2.68-1.82 2.39-3.66-.1-.64.74-1.76-.75-1.96-3.64-.5-4.55-2.12-3.13-5.41.18-.43.24-.89.17-.63zm27.08 33.35c-1.56.04-3.36 1.76-2.99 3.23.29 1.18 1.84 3.14 2.17 3.02 1.46-.55 3.96.74 4.36-2.04.01-.09.65-.25.75-.14 2.18 2.32 1.38-.53 1.76-1.07.38-.54.37-1.34.72-1.92.28-.47.74-.9.07-1.25-.66-.35-1.06-1.59-2.08-.83-1.51 1.11-3.09 1.59-4.76 1zm-111.29-42.89c-1.48-.32-1.96.97-2.91 1.72-.7.55-2.5.45-2.47 1.57.03 1.04 1.31 1.77 2.4 2.44.95.58 2.49 1.08 2.45 2.58-.01.32-1.47.52-.61 1.46.32.35 1.38.45 1.28.08-.36-1.36 2.3-2.16.84-3.2-1.74-1.24-1.37-1.74.06-2.72.64-.44 1.73-1.03 1.13-2.15-.44-.84-.57-2.19-2.17-1.78zm41.67-20.9c-3.27.04-4.79 1.67-3.94 5.15.2.82.18 1.88 1.34 2.14 1.27.28 1.57-.8 2.2-1.5.86-.96.23-1.54-.42-2.1-.92-.8-.52-1.17.32-1.71 1.58-1.02 3.3-.94 5.04-.98 1.66-.04 1.83-1.49 2.03-2.62.11-.62-.41-1.92-.71-1.94-1.23-.09-1.52 1.25-1.69 2.03-.58 2.69-2.45 1.55-4.17 1.53zm73.82 78.06c-2.15-.07-5.46 3.46-5.03 5.78.42 2.22 3.09 1.48 4.06 1.44 4.21-.15 1.67-4.17 2.84-6.26.69-1.23-1.16-.71-1.87-.96zm-25.36 21.89c1.17.02 2.59.13 3.1-.82.66-1.21-1.05-.89-1.45-1.46-.23-.33-.07-.97-.02-1.46.26-2.73-2.31-2.17-3.61-3.04-.75-.5-1.12.44-1.33 1-.64 1.68-.07 3.23.71 4.72.58 1.12 1.55 1.26 2.6 1.06zm-104.33-103.33c-.59.82-1.28 1.58-1.74 2.47-.23.44.26.94.77.79 1.24-.36 1.45.2 1.45 1.26 0 .35.46 1.01.67 1 .82-.06.39-.77.44-1.21.21-1.8.46-3.54 2.89-1.9.59.4.97.15 1.34-.23.29-.3.53-.65.79-.97-.37-.22-.72-.45-1.1-.65-1.65-.87-3.34-1.26-5.51-.56zm-16.29-11.39c.62.84-.63 2.93 1.02 3.16 2.34.32 2.36-1.85 2.56-3.6.19-1.75-1.07-1.95-2.19-2.07-1.77-.17-1.08 1.34-1.39 2.51zm279.85 13c1.11.14 2.16-.44 1.95-.87-1.07-2.2-4.02-1.03-5.55-2.81-.29-.34-1.04.79-.86 1.53.64 2.72 3.49.76 4.46 2.15zm-277.34 13.36c.66-.07 1.63-.11 2.57-.3 1.31-.26.9-1.69 1.5-2.46.11-.14-.13-.77-.36-.91-.59-.34-1.3-.8-1.94-.17-.95.92-.98 2.8-2.87 2.73.07.54-.39 1.44 1.1 1.11zm180.97 5.25c.08.46-.87 1.05.32 1.09 1.07.04 1.85-.66 1.58-1.43-.47-1.38-1.98-3.76-2.09-3.7-3.02 1.43.91 2.67.19 4.04zm78.02-32.85c-.37-1.87-1.01-3.18-2.85-3.32-.57-.04-1 .52-.75.82.96 1.14.04 3.36 2.02 3.75.76.14 1.59-.48 1.58-1.25zm-263.58 16.12l-1.4.74c1.6.51.5 3.1 2.14 3.16 1.39.05 1.13-1.72 1.32-2.66.23-1.14-1-1.05-2.06-1.24zm232.22 21.51c.02-.07-.21.43-.15.47 1.46.95 2.69 1.99 2.13 4.01.36-.06.79-.01 1.07-.2.34-.22.55-.64.82-.97-1.25-.96-1.54-2.92-3.87-3.31zm21.31 10.69c.16.71-.22 1.68.85 1.83.21.03.81-.76.75-1.1-.15-.92-.55-1.8-.85-2.69-.96.4-.47 1.33-.75 1.96zm4.88-23.79c.66-.22 1.71.41 1.37-.62-.21-.65-.12-2.04-1.44-1.86-.51.07-1.52.14-1.31 1.03.16.68.35 1.77 1.38 1.45zm-214.7-10.13c.73-.01.98-.44 1.01-1 .03-.73-.32-1.26-1.07-1.39-.53-.1-.95.2-.91.72.06.68.22 1.4.97 1.67zm239.79 4.48l.34.76c.41-.47.95-.88 1.17-1.42.09-.21-.55-1.02-.86-1.02-.8-.02-.73.7-.65 1.68zm-256.88-10.9c-1.65.14-2.81.12-3.64 1.33 1.37.25 2.4-.08 3.64-1.33zm262.47 4.8c.21-.15.74-.43.71-.54-.33-1.13-1.56-.88-2.33-1.37-.06-.04-.56.37-.54.51.2 1.12 1.16 1.17 2.16 1.4zm-13.91-23.12c1.06 1.51.84 2.89 2.42 3.15.02-1.28-.54-2.13-2.42-3.15zm-195.77 44.66c.73-.9 1.36-1.56 1.83-2.31.16-.26-.08-.82-.63-.68-1.03.26-1.22 1.25-1.6 2.04-.07.15.18.46.4.95zm-38.86 3.11c-1.29-.38-2.09-.19-2.58.77-.06.12.12.49.26.55 1.18.47 1.46-.66 2.32-1.32zm-52.01-43.4c.23.17-.51.96.34.85.79-.11.56-1.01.75-1.59.13-.41.26-.81-.37-.73-.8.1-.7.77-.72 1.47z"/><path class="st1" d="M212.85 136.5c-2.5-3.36-1.27-7.12 2.73-8.01 1.58-.35 2.04-1.04.88-2.15-8.12-7.76-8.4-18.61-11.16-28.45-.41-1.47-1.59-2.19-2.13-3.48-.27-.64-1.31.04-1.15.96.27 1.52-1.23 2.14-1.78 1.97-1.46-.44-3.58.25-4.31-1.49-.51-1.22.56-2.45 1.43-3.43.15-.16.86-.12 1.01.06 1.85 2.27 3.55-.05 4.52-.7 1.45-.99 2.18-3.1 2.25-5.12.01-.18-.41-.37-.62-.55-.19.36-.57.74-.55 1.08.14 1.72-.88 2.91-2.27 2.73-1.9-.24-1.29-2.55-1.98-3.85-.58-1.08 1.08-1.13 1.93-1.49 1.81-.76 3.35-1.79 3.7-4 .41-2.66.65-5.42 1.55-7.92.75-2.08 3.41-2.17 5.01-1.94 1.55.22-.26 1.65-.32 2.56-.13 1.96 1.83 1.99 2.77 1.97 4.14-.08 3.84 2.19 2.92 4.91-1.62 4.82-.66 6.14 4.68 6.63 6.5.59 12.98 1.73 19.48 1.77 6.82.05 13.63 1.02 20.46.3 4.37-.46 8.64.73 12.21 2.78 1.65.94 2.19 4.54 2.36 7 .08 1.1-2.26 1.29-3.74 1.05-.59-.1-1.38-.65-1.69.13-.12.31.6 1.02 1.02 1.47.71.76 1.7 1.56 1.13 2.64-.54 1-1.61.2-2.46.15-1-.06-2.26-.76-2.91.12-.28.38.55 1.68.99 2.5.63 1.17.13 1.61-.97 1.55-1.02-.05-2.04-.31-3.06-.45-.66-.09-1.42-.73-1.94.1-.4.63.17 1.19.45 1.77.29.61.69 1.44.49 1.95-.34.86-1.36.56-2.09.46-1.21-.17-2.39-.53-3.59-.77-1.26-.25-3.95-3.3-2.76 1.43.23.91-.84 1.21-1.66 1.11-.63-.07-1.25-.33-1.87-.51-5.37-1.49-5.37-1.49-8.16 2.73-.17.25-.51.67-.65.63-4.18-1.37-5.35 3.91-9.1 4.17-1.17.08-4.01 2.51-3.41 5.47.46 2.28 2.3 1.99 3.91 2.26 1.2.2 2.37.9 3.54.89 1.97-.02 4.86 1.12 4.65-2.79-.02-.45.67-1.19 1.18-1.36 4.6-1.51 9.23-2.94 13.75.23.65.45 1.3 1.02 2.11.58.84-.45.33-1.28.33-1.95 0-2.12.9-3.03 2.9-1.96 1.47.78 3.09 1.18 4.59 1.94 1.36.7 2.76-.4 2.79-2.29.03-1.83 1.01-2.13 2.56-1.71l5.42 1.39c.91.25.76-.2.69-.81-.49-4.18.73-5.19 4.86-4.08.42.11 1.28.64 1.07-.3-.77-3.46.72-4.74 4-4.63 1.43.05 2.19-.07 1.35-2.03-.49-1.14.15-3.1.88-4.35.62-1.06-1.11-1.33-.32-1.92.49-.37 1.26-.36 2.07-.57-1.9-1.03-3.71-1.99-5.48-3-.34-.2-.57-.61-.84-.92.19-.15.36-.36.58-.45 5.2-2.17 7.54-1.17 9.82 4.15.29.68.27 1.75 1.18 1.78.32.01.71-1.08 1.01-1.69 1.97-4.09 5.91-5.18 9.73-6.44-1.46 2.12-4.29 1.74-6.11 3.38-1.13 1.02-2.45 2.06-2.79 3.38-1.87 7.36-8.17 10.61-13.4 14.86-2.12 1.72-4.32 3.34-6.51 4.97-3.38 2.51-7.47 1.92-11.25 2.16-1.95.12-2.81 1.41-4.26 1.96-4.18 1.59-8.48 1.63-12.81 1.19-3.41-.35-6.62.08-9.79 1.4-1.15.48-2.61.81-3.77.54-6.95-1.65-13.97-1.42-21.01-1.12-4.31.19-5.81 2.55-4.28 6.65.11.25.02.55.01.82zm35.94-31.35c.53-.67-.86-1.67.7-2.24 2.15-.78 4.88-.74 5.6-4.08.17-.78.63-2.23 1.24-3.09.57-.8 1.82-2.11 1.18-2.28-1.29-.35-3.34-.95-4.29.34-1.7 2.34-3.77 3.96-6.38 5.05-3.8 1.58-7.48 3.61-11.42 4.64-2.39.63-3.7 1.57-4.54 3.7-.88 2.21-1 4.77-3.13 6.45-.94.73-2.81.07-2.94 1.45-.46 4.83-3.12 3.67-5.95 2.44-.38-.16-.85-.11-1.27-.15.16.37.24.81.49 1.11 2.39 2.88 7.6 4.22 11.13 2.66 1.35-.6 2.77-1.17 2.47-3.56-.76-6.16 2.24-11.14 9.37-10.29.69.08 1.8-.23 2.11-.73 1.47-2.38 3.42-2.34 5.63-1.42z"/><path class="st1" d="M121.91 128.75c2.34 1.91 7.78 1.94 10.24.12 1.11-.82 1.88-2.15 1.24-3.14-1.11-1.7-1.47-4.09-3.55-4.99-2.04-.89-5.34.04-5.06-3.88 0-.06-.64-.3-.93-.23-3.61.75-5.76-.98-6.09-4.87-.12-1.37-1.09-.42-1.32-.22-1.78 1.52-3.95 2.01-6.09 2.76-2.12.74-2.24-.42-1.98-1.61.52-2.37-.42-1.98-1.94-1.39-1.66.65-3.19 1.79-5.13 1.61-.65-.06-1.37.11-1.69-.63-.27-.62-.1-1.21.3-1.81.36-.55.47-1.26.69-1.9-.61.06-1.23.05-1.82.21-1.47.38-2.92.52-4.4.12.53-1.46 1.07-2.92 1.62-4.42-1.09-.47-2.03.7-3.17.64-.94-.05-2.31.18-2.73-.34-.69-.83.6-1.65.93-2.52.19-.52.55-.97.83-1.46-.61-.09-1.25-.33-1.84-.24-1.39.21-2.85.41-3.29-1.3-.38-1.47.78-2.43 1.92-3.02 2.49-1.29 5.1-2.32 7.6-3.6 7-3.59 14.6-1.26 21.86-2.29 8.61-1.23 17.31-1.89 25.83-3.76 1.42-.31 2.09-.91.97-2.41-1.74-2.33.63-7.97 3.44-8.42.95-.15 2.16-.2 2.35-1.37.82-4.99 3.59-1.9 5.93-1.69 3.62.32 2.36 2.61 2.39 4.55.01 1.21-.21 2.76.42 3.58 3.73 4.85 1.13 9.39-.14 14.16-1.3 4.9-2.29 9.91-2.95 14.93-.69 5.18-3.1 9.37-6.22 13.33-1.37 1.73-1.72 3.28.13 5.26 1.25 1.34 3.1 2.83 2.6 5.22-1.3-2.03-2.15-4.47-4.34-5.73-2.45-1.4-4.53 1.09-7 .93-5.07-.31-10.01.72-14.93 1.99-1.79.46-4.1.64-4.68-2.17zm6.05-20.52c.22.07 1.02.07 1.25.43 1.78 2.72 3.95 5.31 3.14 8.97-.33 1.47 2.92 5.56 4.25 5.31 1.69-.32 3.41-.71 4.98-1.4 1.18-.52.83-1.39-.2-2.01-1.06-.64-2.64-1.04-2.03-2.78.44-1.24-.12-1.51-1.08-1.95-2.21-1.02-3.92-2.32-4.94-4.91-.73-1.88-.92-5.15-3.3-5.38-3.71-.35-6.58-2.71-10.03-3.28-5.28-.87-8.33-4.8-11.94-8-.42-.37-.05-1.63-1.26-1.13-.95.39-2.01.68-2.36 1.83-.29.96.56 1.16 1.08 1.6.5.41.77.91.87 1.64.38 2.57 2.32 3.95 4.29 5.31 1.2.83 3.98.22 3.7 1.62-.47 2.35.97 1.46 1.57 1.31 1.75-.46 2.98-.37 3.68 1.62.19.55 1.17 1.12 1.83 1.17 2.04.12 4.1.03 6.5.03z"/><path class="st1" d="M67.47 33.7c-.31 1.85-2.78 3.36-.55 5.61 1.76 1.78.81 4.15-1.64 4.67-.57.12-1.2.18-1.66.49-.7.47-1.96.52-1.88 1.59.02.28 1.46.45 2.24.68.53.15 1.27.16 1.53.51.45.61-.25 1.14-.54 1.69-1.09 2.09-2.72 3.35-5.09 3.75-.5.08-.88.86-1.31 1.31.46.14.92.29 1.39.4.96.24 1.27 1.1.59 1.54-2.65 1.71-1.27 2.99.3 4.29.39.32 1.19.73.39 1-2.82.97-5.71 2.36-8.71 1.59-.71-.18-1.19-2.52-1.2-3.87-.01-2.45-.51-3.88-3.34-2.97-.36.12-.76.22-1.14.19-1.51-.1-3.41 1.5-4.29.29-.81-1.12 1.73-1.39 2.17-2.6.2-.56 1.05-.99.46-1.69-.57-.69-1.44-.63-2.16-.36-.82.31-1.42.04-1.82-.56-.07-.11.62-.81 1.02-1.16 1.31-1.17 3.12-1.35 4.56-1.14 3.84.55 5.84-1.9 8.16-4.11 1.23-1.17 2.06-2.52 2.31-4.09.42-2.7-2.5-1.46-3.45-2.68-.45-.59-2.36 1.11-1.99-1.05.31-1.79 1.84-1.8 3.23-1.64.71.08 1.39.48 2.65.93-1.3-2.1-4.07-2.57-3.44-5.16l6.76 1.21c-.47 1.49-.9 2.99-1.44 4.45-.19.51-.9.97-.1 1.41.7.38 1.88-.15 1.83-.51-.34-2.52 2-3.01 3.11-4.41 1.05-.16 2.1-.25 3.05.4zm-10.52 24.54c-.31-.54.35-1.73-.59-1.49-.95.24-2.45 1.35-2.38 1.93.13 1.18 1.05 2.85 2.43 2.68 3.18-.38-.75-2.22.54-3.12zm-2.09-11.15c2.06-.25 3.05.47 3.59-.69.11-.24.04-.84-.05-.86-1.1-.28-1.55.78-3.54 1.55zm5.05 1.77c-.82.75-1.79 1.05-1.38 2.11.1.27.76.63.86.55.82-.61.27-1.52.52-2.66z"/><path class="st1" d="M306.03 29.2c.96.33 1.46.59.93 1.93-.43 1.08-2.83 2.58.02 3.85.5.22.05.8-.27 1.13-2.83 2.85-2.43 4.69.93 6.97 1.2.81 3.69 1.4 2.21 4.23-.63 1.2 1.96 1.35 2.49 2.94-1.67-3.97 1.52-3.43 3.15-3.58 1.26-.12 3.34-.55 3.72 1.88-3.58-.32-2.17 2.28-2.31 3.96-.05.57 1.22.89.5 1.62-.67.69-1.3-.14-1.93-.29-.55-.13-1.07-.45-1.57-.74-.61-.35-1.14-.45-1.33.38-.12.55-.25 1.31.57 1.4 1.18.13 2.42.25 1.92 1.85-.46 1.46-1.26 2.92-3.25 2.39-.87-.23-1.47.06-2.15.5-.89.57-1.97-.33-1.62-.72 1.56-1.69-.03-2.73-.45-4.02-.06-.19.04-.54.19-.7 1.69-1.75 1.63-1.93-.54-2.53-1.28 2.62-2.1 5.36-1.81 8.34-.67.12-2.14-.49-2.55-1.31-.47-.94.42-1.25.89-1.68.65-.59.74-1.13.24-1.85-.62-.88-2.08-1.64.32-2.5 1.26-.45-.29-1.5-.81-1.61-2.8-.56-4.25-2.62-5.71-4.73-.52-.75-.4-1.15.52-1.33 1.2-.24 2.39-.52 3.94-.87-1.38-.72-2.52-1.45-3.76-1.92-4.24-1.58-4.59-2.99-1.34-5.85.56-.49.55-1.1-.08-1.45-1.32-.75-1.9-2.01-2.51-3.28 1.29-.79 2.7-.25 4.05-.4.05 1.04.73 1.45 1.63 1.45.33 0 .84-.34.95-.64.29-.83-.26-1.27-1-1.49 1.7-1.53 3.94-.66 5.82-1.33zm-1.51 19.32l-1.78-3.34c-.26.43-.85 1-.73 1.28.48 1.19.98 2.49 1.86 3.36.43.43.25-.71.65-1.3zm-1.56-5.17c1.01.81 1.76 1.52 2.62 2.06.31.2 1.11.08.98-.5-.25-1.19-1.36-1.59-2.38-1.94-.25-.07-.63.19-1.22.38zm-.85-10.42c-.5.32-1.33.38-1.38 1.28-.03.58.4 1.23.82.96.55-.35.85-1.14 1.15-1.78.18-.39-.11-.57-.59-.46z"/><path class="st1" d="M65.37 95.89c1.72 2.12 3.32 4.15 6.62 2.18.57-.34 3.02 1.3 3.57 2.49.45.99-1.52 1.47-2.58 1.76-1 .28-1.75.71-2.53 1.7 3.5.19 4.24 1.36 1.49 3.7-.21.18-.35.81-.3.84 2.88 1.68.43 3.2-.3 4.78 6.91-.32 6.91-.32 6 5.91 4.56-3.39 6.1-2.73 6.92 3.03.14.96.65.6 1.09.43 1.09-.42 2.13-.96 3.23-1.34 2.31-.8 4.81-1.95 4.64 2.34-.07 1.98.93 2.1 2.52 1.29 1.66-.84 3.44-1.44 5.14-2.21.95-.43 1.79-.06 2.26.55.35.44.29 1.38.11 2.01-.18.64-.99 1.25.02 1.76.77.38 1.84.46 2.33-.32 2.35-3.79 6.56-1.81 9.65-3.26-.14 4.13 6.76-.8 5.74 4.46-4.19-.96-8.34.38-12.53.19-2.86-.13-5.58-.72-8.37-1.23-6.22-1.13-12.56-1.98-18.43-4.2-6.98-2.64-11.81-8.22-15.76-14.45-.42-.66-.51-1.98-.14-2.63 1.95-3.39 1.79-6.59-.39-9.78z"/><path class="st1" d="M6.58 42.89c1.32.27 2.64.54 3.96.8.7.14 1.72-.36 1.93.77.21 1.12-.55 2.14-1.42 2.29-2.04.35-1.64 1.59-1.12 2.67.59 1.21 1.69 2.19 3.16 1.4 1.25-.67 2.13-.92 3.19.32 1.32 1.53-.86 1.37-.87 2.08-.04 2.01.67 3.78 1.91 5.43 1.52 2.03 2.83.73 3.94-.21.93-.79 2.12-1.36 2.6-2.71.4-1.13 1.14-1.37 2.52-.81 2.52 1.02 5.24 1.61 7.77-.25.69-.51 1.73-.75 2.11-.09.65 1.11 2.06 1.87 1.87 3.4-.1.83-.59.92-1.23.44-2.61-1.94-6.4-.56-6.95 2.56-.15.83-.15 1.93-1.34 1.6-1.07-.29-1.1-1.48-.75-2.28.44-1.01 1.23-2.36.45-2.92-.99-.7-1.57.95-2.4 1.48-2.59 1.67-5.1 4.26-2.28 6.72 2.3 2.01 3.46 4.44 5.18 6.65 3.59 4.63 7.98 8.52 12.21 12.55-3.8-1.51-6.19-4.76-8.69-7.63-7.65-8.79-15.1-17.77-22.33-26.91-1.61-2.01-3.11-4.51-3.42-7.35z"/><path class="st1" d="M167.79 38.51c-.69.42-1.85.47-1.43 1.78-2.06-.56-4.12-1.12-6.19-1.68l.99-.82c-.43-.33-.82-.86-1.3-.96-5.16-1.1-8.16-4.38-9.68-9.28-.24-.76-.28-2.2-1.48-1.89-1.24.33.07 1.58-.33 2.35-1.81-6.56-3.98-13.05-4.31-20.96 2.42 2.9 2.09 5.44 2.46 7.76 1.03 6.56 4.04 12.36 6.99 18.16.85 1.66 3.07 2 4.87 2.57 3.14.96 6.27 1.97 9.41 2.97z"/><path class="st1" d="M317.16 90c2.9-3.32 7.06-4.83 10.53-7.33 7.11-5.1 11.9-12.54 18.25-18.44 2.67-2.49 4.83-5.56 7.08-8.47 3.8-4.92 4.64-10.32 2.19-16.12 1.53.43 1.94 1.14 2.19 2.94.86 6.35-1.17 11.66-5.5 16.28-7.29 7.77-14.24 15.87-21.85 23.3-3.39 3.31-8.02 5.34-12.1 7.93-.18.1-.53-.05-.79-.09z"/><path class="st1" d="M152.87 138.04c.6.48-.54 1.78.44 1.7 1.62-.13 3.2-.78 5.02-2.73-1.29 10.6 4.12 18.57 7.52 27.16.23.58.35 1.2.52 1.8-.99.01-.79-.87-.93-1.38-1.31-4.68-3.97-8.75-5.97-13.12-1.01-2.21-1.21-4.44-1.17-6.8.03-1.88.4-4.59-1.81-4.95-2.31-.38-4.27 1.68-4.95 3.93-1.02 3.39-1.56 6.93-2.34 10.4-.08.35.22.95-.49 1-.95-.09-.34 1.02-.93 1.21 1.93-6.02.73-12.9 5.09-18.22z"/><path class="st1" d="M192.85 176.07c1.57-2.7 2.74-5.66 5.44-7.6.63-.45 1.11-1.29 1.38-2.06 2.16-6.23 4.33-12.46 6.32-18.74.67-2.12 1.81-3.82 3.12-5.53 1.65-2.16 3.01-1.88 4.25.33 1.3 2.32 2.23 4.76 2.5 7.42-1.35-2.26-1.49-5.03-3.16-7.18-.99-1.28-1.83-1.53-2.92-.21-1.33 1.6-2.47 3.27-3.14 5.31-2.04 6.26-3.76 12.67-6.46 18.64-1.62 3.58-4.83 6.44-7.33 9.62z"/><path class="st1" d="M234.58 49.73c.41 1.31.68 2.68 1.26 3.91.66 1.41 1.27 2.89 3.55 2.12 2.02-.68 4.05.45 5.15 1.94.96 1.29-.36 3.13-.57 4.74-.02.15-.74.4-.97.28-.92-.45-1.87-.91-2.61-1.59-.44-.41.2-.86.59-1.22.58-.54 1.65-.86 1.43-1.86-.28-1.25-1.59-.68-2.29-.77-1.71-.22-3.43-.47-5.23-.38-1.57.08-1.67-2.19-1.37-3.39.33-1.34.12-2.17-.8-2.99.43-.71 1.14-.75 1.86-.79z"/><path class="st1" d="M146.18 30.59c-.19 1.45 1.23 1.62 1.89 2.39-3.68-1.69-7.36-3.38-11.47-5.26 3.8.13 6.78 1.22 9.58 2.87z"/><path class="st1" d="M240.64 47.13c.14 1.56 1.25 2.95.77 4.63-.17.6-.27 1.22-.4 1.84-.32-1.05-1.83.12-2.15-1.26-.32-1.4-1.05-2.7-1.6-4.04 1.13-.4 2.25-.78 3.38-1.17z"/><path class="st1" d="M14.44 33.07c-.04 4.07-5.03 1.82-6.03 4.72-.18.51-1.14.93-.06 1.41.54.24 1.75-.43 1.56.7-.15.87-1.3.5-2.02.48-.63-.02-1.14.06-1.43.69-.49-1.84.35-3.49 1.59-4.43 1.92-1.46 4.24-2.4 6.39-3.57z"/><path class="st0" d="M147.78 156.25c.59-.19-.02-1.29.93-1.21l-.29 2.53.01.58c-.79 3.36-3.38 6.96-5.56 7.56 1.94-3.08 3.72-6.12 4.91-9.46z"/><path class="st0" d="M64.41 33.32c-1.11 1.4-3.44 1.88-3.11 4.41.05.36-1.14.89-1.83.51-.8-.44-.09-.9.1-1.41.54-1.46.97-2.96 1.44-4.45.3.01.61.02.91.04.45.53.96.9 1.7.66.27.07.53.16.79.24z"/><path class="st1" d="M48.79 89.52c3.16.71 6.32 1.4 9.46 2.16.55.13 1.05.62 1.57.09.44-.45.9-.96 1.38-.25.51.74-.31 1.08-.73 1.5-4.29.14-7.88-2.04-11.68-3.5z"/><path class="st1" d="M181.61 186.87c4.56-1.12 6.55-5.06 9.14-8.34.46-.58.98-1.1 1.47-1.65-.67 3.96-7.72 10.59-10.61 9.99z"/><path class="st1" d="M219.46 155.98c-1.42-4.12-2.38-8.35-2.83-12.68 1.58 4.09 2.47 8.33 2.83 12.68z"/><path class="st1" d="M42.73 29.66l-8.55-.02c2.86-.39 5.71-.46 8.55.02z"/><path class="st1" d="M50.52 30.42c-2.14.29-4.23.06-6.26-.67l6.26.67z"/><path class="st1" d="M148.93 33.65l1.45 6.45c-1.13-2.01-2.33-3.99-1.45-6.45z"/><path class="st1" d="M311.98 94.15c1.27-1.6 2.84-2.82 4.67-3.69-.96 1.98-2.51 3.22-4.67 3.69z"/><path class="st0" d="M300.22 30.52c.74.23 1.29.66 1 1.49-.1.3-.62.64-.95.64-.9 0-1.58-.41-1.63-1.45.53-.22 1.06-.45 1.58-.68z"/><path class="st1" d="M341.13 28.86c-1.84.05-3.51-.59-5.16-1.3 1.8.14 3.55.43 5.16 1.3z"/><path class="st1" d="M42.59 85.95c1.44.24 2.86.5 3.45 2.11-1.15-.7-2.3-1.4-3.45-2.11z"/><path class="st1" d="M60.81 93.61c1.33.37 2.89.17 3.86 1.49-1.36-.31-2.87-.23-3.86-1.49z"/><path class="st1" d="M155 44.64l-.67 3.64c-.86-1.43.32-2.46.67-3.64z"/><path class="st1" d="M221.14 28.86l-.2-.24.08-.12c.22-.83.86-.82 1.51-.71.09.02.22.49.16.55-.43.38-.78 1.1-1.55.52z"/><path class="st1" d="M148.71 29.6c.58 1.41.11 1.77-1.24 1.23.8-.03 1.22-.43 1.24-1.23z"/><path class="st1" d="M168.09 169.65l.99 1.69c-.86-.25-.98-.94-.99-1.69z"/><path class="st1" d="M213.22 5.8c-.87-.42-.53-1.08-.33-1.7.82.43.56 1.06.33 1.7z"/><path class="st1" d="M63.62 33.07c-.75.24-1.26-.12-1.7-.66.78-.34 1.33-.07 1.7.66z"/><path class="st1" d="M215.89 141.17l-.51-1c.78.03.91.38.51 1z"/><path class="st1" d="M353.49 36.46c-.63-.19-.86-.58-.59-1.21.93.05.97.53.59 1.21z"/><path class="st1" d="M292.95 31.8c-.27.59-.64.5-1.04.15.27-.59.65-.46 1.04-.15z"/><path class="st1" d="M52.86 30.94l-.88-.33c.4-.18.82-.41.88.33z"/><path class="st1" d="M209.16 20.88l-.44 1.05c.14-.35.29-.7.44-1.05z"/><path class="st1" d="M210.02 18.22l-.14.93.14-.93z"/><path class="st1" d="M214.04 138.11c-.48-.02-.68-.26-.59-.73.23.06.49.08.68.2.06.03-.05.34-.09.53z"/><path class="st1" d="M173.2 178.54l.57.57c-.46.08-.65-.11-.57-.57z"/><path class="st1" d="M148.43 158.15l-.01-.58c.48.19.41.38.01.58z"/><path class="st1" d="M179.02 186.62l.65.19c-.32.29-.57.36-.65-.19z"/><path class="st1" d="M154.6 49.63l.07.65-.07-.65z"/><path class="st1" d="M30.01 30.25l-.47.03.26-.48.21.45z"/><path class="st1" d="M211.5 19.97l-.34-.45.47-.23c.3.3.3.54-.13.68z"/><path class="st1" d="M348.65 31.7c-.6.27-.65-.02-.51-.5l.39-.08.12.58z"/><path class="st1" d="M175.63 182.36l.41.35-.46-.08.05-.27z"/><path class="st1" d="M212.37 3.6l-.11.14-.16-.07c-.04-.23-.11-.46-.09-.68.01-.06.3-.09.46-.14l-.1.75z"/><path class="st1" d="M310.79 94.95l.38-.26.04.43-.42-.17z"/><path class="st1" d="M344.74 29.72l-.42-.08.36-.19.06.27z"/><path class="st1" d="M171.21 175.41l.2.35-.2-.35z"/><path class="st1" d="M177.56 184.68l.23.27-.23-.27z"/><path class="st1" d="M309.62 95.72l.37-.26.04.43-.41-.17z"/><path class="st1" d="M290.65 32.24l-.41.08.41-.08z"/><path class="st1" d="M350.95 32.94l-.28.13-.17-.41.42-.15.03.43z"/><path class="st1" d="M153.27 43.34l.3.2-.3-.2z"/><path class="st1" d="M214.83 139.27l-.23-.34.38-.02-.15.36z"/><path class="st1" d="M172.84 93.83c-1.26-.05-.99.7-.97 1.55.03.98.6 2.72-.85 2.71-1.51-.02.11-1.29-.16-2.08-.65-1.94-2.05-3.8-1.11-6.03.25-.59.07-2.54 1.48-.64.1.13.43.09.65.12.08-.55.44-1.36.2-1.6-2.14-2.26-1.55-6.26-5.77-7.45-3.14-.89-1.57-4.35-1.31-6.84.55-5.28-.58-11.11 2.96-15.53 2.69-3.37 3.35-8.07 7-10.55 2.44-1.65 5.44-2.63 8.47-1.59 2.66.92 5.22 2.16 7.78 3.35.44.2.67.86 1 1.31-1.16-.35-2.46-1.2-3.45-.94-1.57.42-4.72-1.04-4.21 2.71-1.6-1.02-1.52.3-1.71 1.23l-1.62.32c-1.06-.25-1.24-1.34-1.87-2.08-.38.9-.57 1.73-.11 2.58-3.27.79-6.89-.56-9.87 2.39-2.28 2.26-2.5 7.5.29 9.06 2.3 2.5 4.93 3.53 8.22 1.93.4-.19.99.01 1.5.02-.24.55-3.78.29-.41 1.73.39.17.54.63-.02.84-2.57.97-2.75 3.33-3.25 5.51-.32-.52-.63-1.05-1.01-1.68-.26 2.33-.4 4.61-2.2 6.42-.48.48-.4 1.94 1.18 1.76l2.08.93c-1.15-.1-2.06.09-1.92 1.57-.54.35-.73-1.25-1.32-.27-.35.58-1.1 1.14-.35 2.02.71.83 1.08 1.98.4 2.86-1.29 1.64-.97 2.98.28 4.36zm-3.32-22.55c1.86 1.12 3.69.11 4.97 1.38.2.2.86-.43.84-1.04-.02-.56-.14-1.08-.86-.99-1.49.17-2.96.39-4.95.65zm.63 3.11c-.95.02-2.07-.71-2.6.49-.3.68.21 1.46.79 1.58 1.5.3.94-1.55 1.81-2.07zm-1.67-4.52c.24-.42.52-.71.46-.82-.19-.37-.5-.67-.77-1-.22.25-.66.58-.6.73.13.35.5.62.91 1.09z"/><path class="st1" d="M193.1 56.72l2.19.99c-1.56-1.72.02-2.9-.22-4.22.99 1.89 3.48 3.08 1.76 6.1-1.88 3.3 1.68 5.71 2.41 8.65.54 2.21 1.12 4.36.89 6.63-.08.84-.39 1.74-1.37 1.92-1.09.2-1.04-.89-1.44-1.48-.48-.71-1.02-1.39-1.76-2.05 2.06 3.79 1.68 7.4-.5 10.9-.72-.55-.36-2.06-1.78-1.98.29-1.55-.19-2.95-.57-4.44-.73-2.85-2.45-6.58 3.26-6.19.27.02.56-.3 1.33-.74-2-.08-3.62.72-4.82-.67.68-.47 1.47-.85 2-1.45s2.97-1.3.17-2.22l-.17-5.74c1.24 0 1.55-.81 1.68-2-1.35 1.68-2.32-1.42-3.58-.08-.43-.31-.86-.63-1.29-.95.57-.69 2.14 1.1 1.81-.98z"/><path class="st1" d="M170.3 116.08c-2.09-.18-4.27.38-6.19-.99-2.7-1.92-1.95-4.94-1.34-7.06.49-1.71 3.34-.46 5.13-.65 5.52-.59 6.72 3.29 7.53 7.34.37 1.83-1.61.91-2.45 1.3-.75.33-1.78.06-2.68.06z"/><path class="st1" d="M172.86 144.39c-5.67.24-7.89-2.51-6.53-8.1.14-.6.36-1.2 1.15-.92 1.97.68 3.91.08 5.87.02 1.52-.04 3.75-.31 2.66 2.67-.19.51.82 1.35.97 2.1.66 3.41 0 4.05-4.12 4.23z"/><path class="st1" d="M173.7 128.3c-2.65-.36-4.99-.86-7.49-.91-2.7-.05-2.74-3.22-2.91-5.14-.19-2.11 1.77-2 3.44-1.61 2.26.52 4.56.83 6.8 1.43.79.21 2.4 1.25 2.01 1.45-2.15 1.1 1.54 4.57-1.85 4.78z"/><path class="st1" d="M193.27 114.87c-1.34.16-2.76.39-3.22-.61-.46-1 .64-1.78 1.61-2.3.54-.29.88-.8.64-1.46-.97-2.72 1.22-3.22 2.81-3.24 1.73-.02 4.26-1.34 5.18 1.29.85 2.42-.08 4.53-2.6 5.41-1.48.51-2.99 1.3-4.42.91z"/><path class="st1" d="M165.23 87.53c.07-.25.01.21-.17.61-1.42 3.29-.51 4.91 3.13 5.41 1.48.21.65 1.33.75 1.96.29 1.84-.6 3.14-2.39 3.66-.69.2-1.29.1-2-.61-3.62-3.64-1.42-7.85-1.35-11.84.01-.63.12-1.6 1.11-1.47.74.12 1.26.69.92 2.28z"/><path class="st1" d="M192.31 120.88c1.67.59 3.25.12 4.75-1 1.02-.76 1.43.48 2.08.83.67.35.21.78-.07 1.25-.34.58-.34 1.38-.72 1.92-.38.54.42 3.4-1.76 1.07-.1-.11-.74.05-.75.14-.39 2.78-2.9 1.49-4.36 2.04-.33.13-1.88-1.84-2.17-3.02-.35-1.47 1.44-3.19 3-3.23z"/><path class="st1" d="M81.02 77.99c1.6-.41 1.73.93 2.17 1.76.6 1.13-.49 1.71-1.13 2.15-1.43.99-1.8 1.48-.06 2.72 1.46 1.04-1.2 1.84-.84 3.2.1.37-.96.27-1.28-.08-.86-.94.61-1.14.61-1.46.04-1.5-1.5-2-2.45-2.58-1.09-.66-2.37-1.39-2.4-2.44-.03-1.12 1.76-1.02 2.47-1.57.95-.72 1.43-2.02 2.91-1.7z"/><path class="st1" d="M122.69 57.09c1.72.02 3.59 1.16 4.18-1.54.17-.77.45-2.11 1.69-2.03.3.02.82 1.32.71 1.94-.2 1.13-.37 2.58-2.03 2.62-1.74.04-3.46-.04-5.04.98-.83.54-1.23.91-.32 1.71.64.56 1.28 1.14.42 2.1-.63.7-.93 1.78-2.2 1.5-1.17-.26-1.14-1.32-1.34-2.14-.86-3.47.66-5.1 3.93-5.14z"/><path class="st1" d="M196.51 135.14c.71.26 2.56-.26 1.87.97-1.17 2.1 1.37 6.12-2.84 6.26-.97.03-3.64.77-4.06-1.44-.43-2.32 2.88-5.86 5.03-5.79z"/><path class="st1" d="M176.75 98.94c1.34-2.41 7.5-2.82 9.7-1.31 1.52 1.05 4.06 2.37 5.63-.58.75 1.82-.1 2.86-1.82 2.85-4.39-.01-8.78-.23-13.17-.4-.12 0-.22-.36-.34-.56z"/><path class="st1" d="M171.15 157.04c-1.05.19-2.02.05-2.6-1.06-.78-1.5-1.35-3.04-.71-4.72.21-.56.58-1.5 1.33-1 1.3.87 3.87.32 3.61 3.04-.05.49-.21 1.13.02 1.46.4.57 2.11.25 1.45 1.46-.52.95-1.93.84-3.1.82z"/><path class="st1" d="M66.82 53.71c2.16-.7 3.85-.3 5.52.55.38.19.73.43 1.1.65-.26.33-.5.67-.79.97-.38.38-.75.63-1.34.23-2.43-1.63-2.68.1-2.89 1.9-.05.44.38 1.15-.44 1.21-.21.01-.67-.65-.67-1 0-1.06-.21-1.62-1.45-1.26-.51.15-1.01-.34-.77-.79.46-.88 1.14-1.65 1.73-2.46z"/><path class="st1" d="M192.2 95.5c-.89-2.13.11-4.66-1.43-6.65.24-.84 1.09-.6 1.63-.92 1.22 2.36 1.4-.34 2.11-.44-.02 1.78-.18 3.57-.03 5.33.15 1.79-2.45 1.02-2.28 2.68z"/><path class="st1" d="M50.53 42.32c.3-1.17-.38-2.68 1.39-2.51 1.12.11 2.38.31 2.19 2.07-.19 1.75-.22 3.91-2.56 3.6-1.65-.23-.4-2.32-1.02-3.16z"/><path class="st1" d="M159.38 42.64c2.26 1.13 1.72 3.66 2.69 5.44.44.82.35 2.12 1.4 2.36 1.18.27 1.38-1.12 2.03-1.75.68-.68 1.29-1.43 1.93-2.15-.44 1.03-.79 2.11-1.33 3.08-.49.88-1.02 1.96-2.26 1.85-1.34-.12-1.83-1.18-2.24-2.34-.75-2.11-1.62-4.18-2.43-6.27-.02-.05-.01-.15.03-.19l.18-.03z"/><path class="st1" d="M330.38 55.32c-.97-1.39-3.82.57-4.46-2.16-.18-.74.57-1.86.86-1.53 1.53 1.78 4.48.61 5.55 2.81.21.44-.83 1.02-1.95.88z"/><path class="st1" d="M53.04 68.68c-1.5.33-1.03-.57-1.11-1.11 1.9.07 1.93-1.8 2.87-2.73.64-.63 1.35-.17 1.94.17.23.14.47.77.36.91-.6.77-.19 2.2-1.5 2.46-.92.19-1.89.23-2.56.3z"/><path class="st1" d="M234.01 73.93c.73-1.38-3.21-2.61-.19-4.05.12-.05 1.62 2.33 2.09 3.7.26.77-.51 1.47-1.58 1.43-1.2-.03-.24-.62-.32-1.08z"/><path class="st1" d="M312.03 41.08c.01.77-.82 1.39-1.58 1.24-1.98-.39-1.06-2.61-2.02-3.75-.25-.3.18-.86.75-.82 1.84.15 2.48 1.46 2.85 3.33z"/><path class="st1" d="M48.45 57.2c1.06.19 2.29.1 2.06 1.25-.19.94.07 2.71-1.32 2.66-1.64-.06-.54-2.65-2.14-3.16.52-.29 1.05-.57 1.4-.75z"/><path class="st1" d="M280.67 78.71c2.33.39 2.62 2.35 3.87 3.31-.27.33-.48.75-.82.97-.28.18-.71.14-1.07.2.56-2.02-.67-3.06-2.13-4.01-.06-.04.17-.53.15-.47z"/><path class="st1" d="M301.98 89.4c.29-.64-.21-1.57.76-1.96.3.9.7 1.77.85 2.69.05.34-.54 1.13-.75 1.1-1.09-.15-.71-1.12-.86-1.83z"/><path class="st1" d="M306.86 65.61c-1.03.32-1.22-.77-1.38-1.45-.22-.89.79-.96 1.31-1.03 1.32-.18 1.23 1.21 1.44 1.86.34 1.03-.72.4-1.37.62z"/><path class="st1" d="M92.16 55.48c-.75-.27-.91-.99-.97-1.67-.04-.53.38-.82.91-.72.75.14 1.1.67 1.07 1.39-.02.55-.28.98-1.01 1z"/><path class="st1" d="M331.95 59.96c-.08-.98-.15-1.7.65-1.69.32.01.95.81.86 1.02-.22.54-.76.96-1.17 1.42l-.34-.75z"/><path class="st1" d="M75.07 49.06c-1.24 1.25-2.27 1.58-3.64 1.33.83-1.21 1.99-1.19 3.64-1.33z"/><path class="st1" d="M337.54 53.86c-1-.24-1.96-.29-2.16-1.4-.03-.14.48-.54.54-.51.77.5 1.99.24 2.33 1.37.03.12-.5.39-.71.54z"/><path class="st1" d="M323.63 30.74c1.88 1.02 2.44 1.87 2.42 3.15-1.58-.26-1.36-1.64-2.42-3.15z"/><path class="st1" d="M127.86 75.4c-.22-.5-.47-.8-.4-.95.38-.79.57-1.78 1.6-2.04.54-.14.79.41.63.68-.48.76-1.1 1.41-1.83 2.31z"/><path class="st1" d="M89 78.51c-.85.66-1.13 1.79-2.32 1.32-.14-.06-.32-.43-.26-.55.48-.95 1.29-1.15 2.58-.77z"/><path class="st1" d="M36.99 35.11c.02-.7-.07-1.36.72-1.46.64-.08.51.32.37.73-.19.57.04 1.48-.75 1.59-.85.1-.11-.69-.34-.86z"/><path class="st1" d="M167.59 44.01c.01-.56.02-1.12.04-1.68.52.57.51 1.13-.04 1.68z"/><path class="st1" d="M158.86 39.53l.47 1.76c-.55-.49-.83-1.04-.47-1.76z"/><polygon class="st1" points="194.94,53.13 194.81,53.11 194.91,53.03 195.02,53.06"/><polygon class="st1" points="194.05,51.61 193.96,51.67 194,51.56 194.08,51.52"/><path class="st1" d="M176.37 98.62l.22.23-.22-.23z"/><path class="st0" d="M248.79 105.15c-2.22-.92-4.16-.96-5.63 1.42-.31.5-1.42.81-2.11.73-7.13-.85-10.13 4.12-9.37 10.29.3 2.39-1.12 2.96-2.47 3.56-3.54 1.56-8.74.21-11.13-2.66-.25-.3-.33-.74-.49-1.11.43.05.9-.01 1.27.15 2.83 1.24 5.49 2.4 5.95-2.44.13-1.38 2.01-.71 2.94-1.45 2.13-1.67 2.25-4.23 3.13-6.45.85-2.13 2.16-3.07 4.54-3.7 3.94-1.03 7.62-3.06 11.42-4.64 2.61-1.09 4.68-2.71 6.38-5.05.94-1.3 2.99-.69 4.29-.34.64.17-.62 1.48-1.18 2.28-.61.86-1.07 2.31-1.24 3.09-.72 3.35-3.45 3.3-5.6 4.08-1.55.56-.17 1.57-.7 2.24z"/><path class="st0" d="M127.96 108.23c-2.4 0-4.45.1-6.49-.05-.66-.05-1.63-.61-1.83-1.17-.7-1.99-1.93-2.08-3.68-1.62-.6.16-2.05 1.05-1.57-1.31.28-1.4-2.49-.78-3.7-1.62-1.97-1.36-3.91-2.74-4.29-5.31-.11-.72-.37-1.22-.87-1.64-.53-.44-1.37-.64-1.08-1.6.35-1.15 1.41-1.44 2.36-1.83 1.21-.49.84.76 1.26 1.13 3.61 3.2 6.65 7.13 11.94 8 3.44.57 6.32 2.93 10.03 3.28 2.38.22 2.57 3.5 3.3 5.38 1.01 2.59 2.73 3.89 4.94 4.91.96.44 1.52.71 1.08 1.95-.61 1.74.97 2.14 2.03 2.78 1.03.62 1.38 1.48.2 2.01-1.56.69-3.28 1.09-4.98 1.4-1.33.25-4.58-3.84-4.25-5.31.81-3.65-1.36-6.25-3.14-8.97-.25-.35-1.04-.34-1.26-.41z"/><path class="st0" d="M56.95 58.24c-1.29.89 2.64 2.74-.54 3.12-1.38.17-2.31-1.5-2.43-2.68-.06-.58 1.43-1.69 2.38-1.93s.28.95.59 1.49z"/><path class="st0" d="M54.86 47.09c1.99-.77 2.45-1.83 3.54-1.55.09.02.17.62.05.86-.54 1.16-1.53.43-3.59.69z"/><path class="st0" d="M59.91 48.86c-.25 1.14.3 2.05-.51 2.66-.11.08-.76-.28-.86-.55-.42-1.06.55-1.36 1.37-2.11z"/><path class="st0" d="M304.52 48.52c-.4.59-.23 1.73-.66 1.3-.88-.87-1.38-2.17-1.86-3.36-.11-.28.47-.84.73-1.28.62 1.15 1.24 2.3 1.79 3.34z"/><path class="st0" d="M302.96 43.35c.58-.19.96-.46 1.22-.37 1.02.35 2.13.75 2.38 1.94.12.58-.67.7-.98.5-.85-.55-1.61-1.25-2.62-2.07z"/><path class="st0" d="M302.11 32.93c.48-.11.77.07.59.45-.3.65-.61 1.44-1.15 1.78-.42.27-.85-.38-.82-.96.05-.88.88-.95 1.38-1.27z"/><path class="st0" d="M193.28 82.17l-.88 5.76c-.54.32-1.39.08-1.63.92l-.23.34-.18.6-.03.22-1.17 3.62-.28.35-.32.29-.52.42c-.59.22-1.18.44-1.78.65l-.6.15-.69.32-.04.01-.47.07-1.15-.09c-.5-.69-1.17-.5-1.83-.33l-.85.14-.66.16c-1.4.34-2.9 1.23-4.11-.27-1.26-1.55-3.33-2.84-1.92-5.43.92-1.7-.2-3.47-.13-5.22-.13-1.47.77-1.67 1.92-1.57 2.23.47 4.38.35 6.42-.75 2.84.55 5.66 1.36 8.58.54l.84-1.16c.4-.37.4-.75.04-1.14l-.57-1.54-.18-.46-.48-2.72c.08-.61.16-1.22.23-1.83l.18-3.6.93-.58c.26.02.52.04.77.07 1.2 1.39 2.81.6 4.82.67-.77.44-1.06.75-1.33.74-5.71-.39-3.99 3.34-3.26 6.19.38 1.51.85 2.91.56 4.46zm-10.23 7.65c1.02.4 1.55.2 1.3-.62-.3-.98-.76-2.63-1.29-2.69-1.27-.13-1.96.77-1.98 2.37-.05 2.55 1.4.97 1.97.94zm-3.96-2.91l.4 2.87c.16-.04.45-.05.46-.12.25-.99.16-1.95-.86-2.75z"/><path class="st0" d="M181.45 64.93c.02.28.04.57.05.85l-1.3 2.02-.84-.01c-.5-.02-1.1-.22-1.5-.02-3.29 1.6-5.92.57-8.22-1.93l-.11-.88c.11-.11.1-.22-.02-.32l.01-2.03.52-.65c2.34-.82.85-3.38 2.25-4.85 1.78-1.86 3.65-1.37 5.54-1.02 1.6.3 1.71 1.9 1.65 3.14-.09 2.14.72 3.87 1.87 5.53l-.05.12.15.05z"/><path class="st0" d="M175.68 75.86c1 2.69-1.54 4.28-2.03 6.5-1.58.18-1.65-1.28-1.18-1.76 1.79-1.81 1.93-4.09 2.2-6.42.38.63.69 1.16 1.01 1.68z"/><path class="st0" d="M169.52 71.28c1.99-.27 3.47-.48 4.95-.66.72-.09.84.44.86.99.02.61-.64 1.24-.84 1.04-1.29-1.25-3.11-.24-4.97-1.37z"/><path class="st0" d="M170.15 74.39c-.88.53-.31 2.38-1.81 2.07-.58-.12-1.09-.9-.79-1.58.54-1.21 1.65-.48 2.6-.49z"/><path class="st0" d="M181.21 53.88c-.47.92-1.17.92-1.98.5-.46-.85-.27-1.68.11-2.58.63.73.81 1.82 1.87 2.08z"/><path class="st0" d="M184.54 52.32c.29.66 1.35 1.23-.07 1.96-1.06.55-1.38.14-1.64-.73.19-.93.1-2.25 1.71-1.23z"/><path class="st0" d="M168.48 69.87c-.42-.47-.79-.73-.91-1.09-.05-.15.39-.48.6-.73.27.33.58.63.77 1 .06.11-.21.4-.46.82z"/><path class="st0" d="M194.5 60.71l.17 5.74-.57.52-.19.2-.35.39c-1.26.97-2.71.33-4.06.49l-.5-.25-.25-.27-.15-.2c.03-.66-.2-1.26-.91-1.16-2.29.33-2.44-1.19-2.55-2.79.27-.93.86-1.89.77-2.78-.56-4.99 2.42-5.15 6.02-4.59l.51.32.68.4c.34 2.09-1.24.3-1.79.97l1.29.95c.61.68 1.24 1.37 1.88 2.06z"/><path class="st1" d="M185.13 63.37c.11 1.61.26 3.12 2.55 2.79.71-.1.94.5.91 1.16-.91-.9-1.45-.8-2.64.04-1.97 1.4-1.98 3.08-1.86 5.02-.58-.24.03-2.29-1.54-1.01-.84-1.15-2.31-1.9-2.34-3.58.43-.67.86-1.34 1.29-2.02.9 1.44 2.03-.41 2.99.2.03-.52 0-1.05.11-1.55.09-.36.35-.7.53-1.05z"/><path class="st1" d="M189.14 55.04c-.68-.39-1.75-.15-1.83-1.12-.05-.56.71-.7 1.21-.54.68.21 1.73.08 1.78 1.08.04.75-.78.36-1.16.58z"/><path class="st1" d="M170.05 61.96l-.52.65c-.53-.61-.63-1.46.05-1.72.59-.24.62.55.47 1.07z"/><path class="st1" d="M192.42 56.31l-.51-.32.51.32z"/><path class="st1" d="M169.52 64.63c.12.1.12.21.02.32l-.02-.32z"/><path class="st1" d="M181.45 64.93l-.12-.05.05-.12.23.02-.16.15z"/><path class="st1" d="M189.16 93.63c.39-1.21.78-2.42 1.17-3.62-.08 1.3.5 2.83-1.17 3.62z"/><path class="st1" d="M186.27 95.34c.59-.22 1.18-.44 1.78-.65-.35.89-1.07.75-1.78.65z"/><path class="st1" d="M181.49 95.48c.66-.16 1.32-.35 1.83.33l-1.83-.33z"/><path class="st1" d="M190.36 89.79l.18-.6-.18.6z"/><path class="st1" d="M179.98 95.77l.66-.16-.66.16z"/><path class="st1" d="M184.97 95.82l.69-.32-.69.32z"/><path class="st1" d="M188.56 94.27l.32-.29-.32.29z"/><path class="st1" d="M184.47 95.9l.47-.07c-.11.34-.26.43-.47.07z"/><path class="st1" d="M184.54 77.94c.65 1.04.86 2.06.78 3.4-.15 2.39 2.15 1.26 3.34 1.71.61.23 1.39.03 2.08.03-2.93.83-5.75.01-8.58-.53-.08-.3-.13-.85-.26-.87-7.53-1.17-.7-3.82-.6-5.77-.68 1.91.32 3.72 1.49 4.57.78.56.68-1.94 1.75-2.54z"/><path class="st1" d="M183.05 89.82c-.57.03-2.01 1.6-1.97-.94.03-1.6.72-2.5 1.98-2.37.53.06.99 1.7 1.29 2.69.25.82-.29 1.02-1.3.62z"/><path class="st1" d="M179.09 86.91c1.02.8 1.11 1.76.86 2.76-.02.07-.3.08-.46.12l-.4-2.88z"/><path class="st1" d="M190.38 76.06c-.44-.68-.4-1.29.23-1.83-.08.61-.16 1.22-.23 1.83z"/><path class="st1" d="M191.57 81.91c-.38-.39-.37-.78.04-1.14.36.4.36.78-.04 1.14z"/><path class="st1" d="M191.04 79.24l-.39-.23.21-.23.18.46z"/><path class="st1" d="M190.79 70.64c-.13-.9.17-1.11.93-.58-.31.19-.62.38-.93.58z"/><path class="st0" d="M184.54 77.94c-1.07.6-.96 3.1-1.75 2.53-1.18-.85-2.17-2.66-1.49-4.57l1.26-4.53c1.58-1.28.96.78 1.54 1.01l.59 1.61.16.58.11 1.87v.05c-.15.5-.29.97-.42 1.45z"/><path class="st1" d="M193.55 67.56c-1.16 1.81-2.62 1.04-4.06.49 1.35-.16 2.8.48 4.06-.49z"/><path class="st1" d="M194.1 66.97l-.2.2.2-.2z"/><path class="st1" d="M188.98 67.79l-.25-.27.25.27z"/><path class="st1" d="M184.83 74.58l-.16-.58c.46.08.54.27.16.58z"/><path class="st1" d="M184.94 76.51v-.05l.12-.04-.12.09z"/></svg>